<svg width="79" height="64" viewBox="0 0 79 64" fill="none" xmlns="http://www.w3.org/2000/svg">
<path d="M41.8529 24.5233C41.9477 24.9471 42.1815 25.2914 42.435 25.6244C42.6327 25.8843 42.8279 26.1474 43.0445 26.3921C43.3517 26.7392 43.6742 27.0738 43.9964 27.408C44.3065 27.7296 44.6176 28.0508 44.941 28.3595C45.2422 28.647 45.5605 28.9175 45.8707 29.1961C46.1506 29.4475 46.4253 29.7047 46.7106 29.9503C47.0111 30.2091 47.3217 30.457 47.6273 30.7102C47.9769 30.9998 48.3214 31.2955 48.6768 31.5782C48.9587 31.8025 49.2565 32.0078 49.5422 32.2277C49.8411 32.4579 50.1279 32.7034 50.4311 32.9281C50.9398 33.3052 51.4552 33.6739 51.972 34.0406C52.2752 34.2557 52.5868 34.4594 52.8936 34.6696C53.1525 34.8468 53.4086 35.0277 53.6683 35.2037C53.9525 35.3963 54.2342 35.5928 54.5261 35.7737C54.9609 36.0432 55.4035 36.3009 55.8432 36.563C56.1735 36.76 56.496 36.9714 56.8373 37.1488C57.3297 37.4047 57.8318 37.6442 58.3375 37.8751C58.9587 38.1586 59.5801 38.4488 60.2952 38.4251C60.4771 38.4191 60.7127 38.2281 60.6708 38.0569C60.6103 37.81 60.5286 37.5575 60.3987 37.3395C60.1709 36.9571 59.9057 36.5949 59.6439 36.2327C59.5301 36.0753 59.3883 35.9365 59.2544 35.7936C58.9531 35.4719 58.6503 35.1515 58.3449 34.8333C58.1331 34.6126 57.9223 34.3903 57.6999 34.1798C57.397 33.8932 57.084 33.6165 56.7744 33.3365C56.4902 33.0795 56.2082 32.8199 55.9187 32.5687C55.6305 32.3186 55.3332 32.0784 55.0416 31.8321C54.7524 31.5878 54.472 31.3333 54.1755 31.0978C53.8283 30.822 53.4643 30.5663 53.1141 30.294C52.7286 29.9943 52.3592 29.6743 51.9667 29.3838C51.445 28.9977 50.908 28.6313 50.3771 28.2571C49.9999 27.9912 49.6273 27.7187 49.2427 27.4632C48.772 27.1503 48.2934 26.8485 47.8138 26.5485C47.3584 26.2635 46.9011 25.9811 46.4379 25.7084C46.0408 25.4745 45.6397 25.2458 45.2303 25.0332C44.8088 24.8144 44.3775 24.6128 43.9459 24.4133C43.6925 24.2961 43.4382 24.1675 43.1695 24.0981C42.8344 24.0116 42.4846 23.9762 42.1396 23.9302C42.0883 23.9234 42.025 23.9743 41.9727 24.0067C41.7538 24.1428 41.8006 24.3376 41.8529 24.5233ZM0.117643 0C0.250329 0.0736737 0.376949 0.161457 0.516793 0.218609C1.27652 0.52915 2.04176 0.826981 2.80049 1.13974C3.22186 1.31342 3.6314 1.5142 4.05168 1.69068C4.4211 1.84581 4.79991 1.97977 5.17122 2.13074C5.72429 2.35558 6.27293 2.59052 6.82614 2.81497C7.38174 3.04039 7.94206 3.25488 8.49761 3.48044C8.90715 3.64673 9.31167 3.82471 9.71972 3.99447C10.0676 4.13916 10.4183 4.27738 10.766 4.4225C11.2315 4.61676 11.6939 4.81807 12.1603 5.0103C12.479 5.14165 12.8034 5.25993 13.1233 5.38877C13.7393 5.63699 14.3529 5.89091 14.9693 6.13802C15.6075 6.39382 16.2507 6.63789 16.8865 6.89901C17.5238 7.1607 18.1515 7.44414 18.7892 7.70482C19.2441 7.89077 19.7116 8.04735 20.1677 8.23064C20.7168 8.45128 21.258 8.69027 21.8059 8.91385C22.2625 9.10018 22.7246 9.27376 23.1828 9.45647C23.7645 9.68841 24.3435 9.92663 24.9258 10.1568C25.3902 10.3405 25.8596 10.5122 26.3237 10.6966C26.7463 10.8644 27.162 11.0486 27.5857 11.2136C27.9653 11.3614 28.3543 11.4866 28.7345 11.6333C29.1861 11.8074 29.6316 11.9961 30.0816 12.174C30.4215 12.3084 30.7658 12.4325 31.1056 12.5669C31.4781 12.7142 31.8451 12.8748 32.2195 13.0172C32.6011 13.1621 32.9899 13.2889 33.3733 13.4292C33.7038 13.5501 34.0314 13.6785 34.3599 13.8043C34.6366 13.9102 34.9124 14.0182 35.1894 14.1233C35.6978 14.3164 36.2052 14.5122 36.716 14.699C37.1916 14.8729 37.6737 15.0302 38.1483 15.2064C38.7223 15.4195 39.2904 15.6475 39.8633 15.8635C40.0758 15.9435 40.296 16.004 40.5103 16.0798C40.9813 16.2463 41.4509 16.4166 41.9209 16.5859C42.4432 16.774 42.9617 16.9726 43.4883 17.1484C44.0231 17.327 44.5657 17.4834 45.105 17.6493C45.6347 17.8123 46.1618 17.9841 46.6954 18.1342C47.0082 18.2221 47.3297 18.2841 47.6503 18.3419C48.2583 18.4514 48.8676 18.5544 49.4781 18.6496C49.6881 18.6823 49.903 18.6888 50.1161 18.6979C50.5031 18.7143 50.8905 18.721 51.2775 18.7365C51.8674 18.7603 52.4569 18.8003 53.047 18.8111C53.7145 18.8232 54.3825 18.8113 55.0503 18.8086C55.6313 18.8064 56.2122 18.796 56.7931 18.8011C57.3773 18.8062 57.9612 18.83 58.5455 18.8379C58.9633 18.8436 59.3814 18.8317 59.7994 18.8361C60.3212 18.8415 60.843 18.8539 61.3647 18.8662C61.8575 18.8779 62.3502 18.8927 62.8429 18.9074C63.0567 18.9138 63.2706 18.9213 63.4841 18.933C63.5237 18.9352 63.562 18.9595 63.6008 18.9736C63.5984 18.993 63.5959 19.0125 63.5934 19.0318C63.3123 19.0382 63.0309 19.0393 62.7501 19.052C62.2743 19.0735 61.7992 19.1151 61.3232 19.1254C60.4329 19.1446 59.5499 19.2181 58.6765 19.3929C58.0659 19.5151 57.4457 19.6002 56.8443 19.7552C56.3491 19.883 55.8634 20.0635 55.3956 20.2683C54.9936 20.4442 54.602 20.6589 54.2429 20.9073C53.5714 21.3716 53.0127 21.9333 52.6869 22.6982C52.4149 23.3367 52.3551 23.9802 52.3946 24.6637C52.4257 25.2021 52.5554 25.7122 52.7254 26.2078C52.9136 26.7566 53.1659 27.2906 53.4458 27.8023C53.7731 28.4007 54.1386 28.9824 54.5284 29.5445C54.8564 30.0173 55.2381 30.4556 55.6053 30.9019C55.8994 31.2594 56.204 31.6088 56.5102 31.9566C56.8942 32.3927 57.2875 32.8209 57.6709 33.2574C57.93 33.5524 58.1746 33.8594 58.4332 34.1548C58.7486 34.515 59.0745 34.8663 59.3908 35.2258C59.6228 35.4895 59.8426 35.7634 60.0751 36.0267C60.4195 36.417 60.771 36.8013 61.1184 37.189C61.5406 37.6601 61.9639 38.1304 62.3823 38.6047C62.6038 38.8558 62.8117 39.118 63.0334 39.369C63.2555 39.6204 63.4899 39.8616 63.7135 40.1118C63.9416 40.367 64.1611 40.6294 64.388 40.8858C64.623 41.1513 64.865 41.4111 65.0989 41.6775C65.2431 41.8418 65.3709 42.0198 65.5185 42.1808C65.8337 42.5247 66.159 42.8599 66.4764 43.2018C66.7054 43.4483 66.9256 43.7025 67.1548 43.9488C67.3767 44.1871 67.6082 44.4169 67.8298 44.6555C68.0435 44.8855 68.2467 45.1248 68.4603 45.355C68.7957 45.7165 69.1384 46.0715 69.4731 46.4336C69.6908 46.6691 69.8947 46.9166 70.1136 47.1509C70.4312 47.491 70.7596 47.8215 71.078 48.1609C71.288 48.3848 71.4849 48.6202 71.6939 48.8451C72.1177 49.3012 72.5487 49.751 72.9711 50.2083C73.2788 50.5414 73.5748 50.8847 73.8812 51.219C74.2067 51.5743 74.5397 51.9231 74.8665 52.2773C74.9893 52.4104 75.1049 52.5498 75.222 52.6876C75.4973 53.0116 75.7764 53.3326 76.0447 53.6618C76.258 53.9235 76.4641 54.1913 76.6619 54.4642C76.9609 54.8765 77.2578 55.2907 77.54 55.7138C77.7037 55.9593 77.8505 56.2177 77.9808 56.4816C78.1763 56.8777 78.3698 57.2767 78.5286 57.6875C78.6833 58.0873 78.8404 58.496 78.911 58.9144C78.9973 59.4264 79.0578 59.9591 78.9118 60.4706C78.7515 61.0325 78.4896 61.5396 78.0249 61.9488C77.6078 62.316 77.1484 62.5983 76.6527 62.845C75.5658 63.3862 74.3798 63.5618 73.1973 63.7472C72.7121 63.8232 72.2204 63.8691 71.7299 63.9011C71.0329 63.9465 70.3345 63.977 69.6361 63.9937C69.0997 64.0066 68.5621 63.9983 68.0256 63.9812C67.3496 63.9597 66.6741 63.9234 65.9987 63.8863C65.6012 63.8646 65.2044 63.8317 64.8077 63.7989C64.1885 63.7476 63.5695 63.6942 62.9508 63.6377C62.5831 63.6042 62.215 63.5703 61.8489 63.5236C61.0827 63.4259 60.318 63.3173 59.5521 63.2178C59.0858 63.1572 58.6167 63.1155 58.1517 63.047C57.583 62.9631 57.0175 62.859 56.4504 62.7656C56.1141 62.7103 55.7771 62.6597 55.4407 62.6051C54.7624 62.4951 54.0835 62.3878 53.4063 62.2716C52.8338 62.1734 52.2634 62.0636 51.6919 61.9604C51.481 61.9224 51.2686 61.8925 51.0582 61.8523C50.51 61.7474 49.9627 61.6381 49.4146 61.5325C49.2266 61.4963 49.037 61.4685 48.8491 61.4323C48.4406 61.3536 48.033 61.27 47.6244 61.1917C47.2474 61.1195 46.8688 61.0556 46.4923 60.981C45.9584 60.8753 45.4261 60.7611 44.8923 60.6543C44.5372 60.5833 44.1793 60.5249 43.8251 60.4501C43.3282 60.3452 42.8345 60.2265 42.3377 60.1209C41.9892 60.0467 41.6371 59.9884 41.2883 59.9157C40.9286 59.8408 40.571 59.7561 40.2122 59.6772C40.0249 59.6359 39.8369 59.5974 39.6491 59.5582C39.1857 59.4614 38.7207 59.3716 38.2592 59.2669C37.5998 59.1172 36.9434 58.9554 36.285 58.8018C36.0681 58.7513 35.8484 58.7121 35.631 58.6638C35.5824 58.6529 35.5378 58.6255 35.5036 58.565C35.7453 58.6003 35.9896 58.6244 36.2282 58.674C36.5385 58.7384 36.8419 58.8343 37.1526 58.8966C37.8203 59.0304 38.4908 59.1507 39.1599 59.2777C39.6348 59.3679 40.1099 59.4573 40.5838 59.5522C41.0741 59.6505 41.5622 59.7585 42.0529 59.855C42.2616 59.896 42.4756 59.9116 42.6848 59.9507C43.0735 60.0233 43.4598 60.1083 43.8484 60.1812C44.0724 60.2231 44.2994 60.25 44.5245 60.2865C44.9784 60.3601 45.4313 60.4392 45.8858 60.5093C46.2801 60.5701 46.6762 60.6197 47.071 60.6778C47.5638 60.7504 48.0559 60.8284 48.5488 60.901C49.1859 60.9949 49.8226 61.0924 50.4613 61.1758C50.9146 61.235 51.3713 61.2689 51.8254 61.3222C52.4522 61.3958 53.0775 61.4817 53.7046 61.5528C53.9965 61.5859 54.2916 61.593 54.5847 61.618C55.115 61.6633 55.6444 61.7182 56.175 61.7592C56.4739 61.7824 56.7745 61.7834 57.0742 61.7986C57.6842 61.8295 58.2938 61.8718 58.9042 61.8927C59.3211 61.907 59.7392 61.8962 60.1566 61.8908C60.7653 61.8828 61.3743 61.8796 61.9824 61.8561C62.7075 61.8281 63.4319 61.7844 64.1562 61.7409C64.8173 61.7012 65.478 61.6542 66.1385 61.6068C66.2833 61.5963 66.4263 61.5647 66.5709 61.5519C68.003 61.4253 69.3989 61.1245 70.7753 60.7301C71.0616 60.648 71.3622 60.5919 71.6274 60.4662C72.1763 60.206 72.7459 59.9931 73.2527 59.6359C73.6366 59.3653 73.9656 59.0541 74.2613 58.7119C74.4652 58.476 74.6048 58.1794 74.7355 57.8936C75.1897 56.9004 74.9857 55.9173 74.6322 54.9511C74.4291 54.3958 74.2104 53.8415 73.9415 53.3144C73.6375 52.7182 73.287 52.1421 72.9227 51.5779C72.6753 51.1946 72.3844 50.8347 72.0855 50.4866C71.7873 50.1394 71.4661 49.8088 71.1343 49.4915C70.7906 49.1629 70.4373 48.8405 70.0604 48.5494C69.6422 48.2262 69.1988 47.9326 68.755 47.6424C68.3042 47.3476 67.8439 47.0658 67.3795 46.7914C67.0723 46.6099 66.7498 46.4527 66.4355 46.2822C66.097 46.0986 65.7614 45.91 65.4223 45.7275C65.0391 45.5213 64.6561 45.3145 64.2683 45.1166C63.669 44.8107 63.0673 44.5092 62.4637 44.2115C61.9906 43.9782 61.5131 43.7534 61.0375 43.5249C60.5258 43.279 60.016 43.0291 59.5016 42.7885C59.0124 42.5596 58.5158 42.3459 58.0275 42.1154C57.6159 41.9211 57.2149 41.7057 56.8032 41.5118C56.3976 41.3207 55.9818 41.15 55.5752 40.9611C55.1619 40.769 54.7563 40.5618 54.3439 40.3682C53.9433 40.1802 53.5377 40.0024 53.1356 39.8174C52.8171 39.6709 52.4995 39.5226 52.1835 39.371C51.8736 39.2223 51.566 39.0691 51.2581 38.9164C50.9256 38.7516 50.599 38.5746 50.2606 38.4225C49.9553 38.2852 49.6404 38.1669 49.3247 38.0535C48.8937 37.8987 48.4608 37.7477 48.0231 37.612C47.7335 37.5222 47.4362 37.4523 47.1386 37.391C46.4659 37.2525 45.7921 37.1189 45.1164 36.995C44.6369 36.9072 44.1547 36.8314 43.6718 36.7632C43.1454 36.6889 42.6177 36.621 42.0888 36.566C41.4589 36.5005 40.8274 36.4488 40.1961 36.3963C39.5853 36.3456 38.9741 36.3009 38.3629 36.2545C37.9587 36.2239 37.5545 36.1921 37.15 36.166C36.4815 36.1229 35.8126 36.0842 35.144 36.0435C34.7035 36.0167 34.2628 35.9916 33.8224 35.9624C33.1101 35.9152 32.3984 35.8609 31.6858 35.8182C31.3036 35.7953 30.9201 35.7929 30.5373 35.7773C29.835 35.7487 29.1329 35.7182 28.4308 35.6864C28.0152 35.6676 27.5997 35.6479 27.1844 35.6233C26.6622 35.5922 26.1406 35.5501 25.6182 35.5237C25.2589 35.5056 24.8985 35.5079 24.5387 35.4979C23.9961 35.4829 23.4534 35.4685 22.9111 35.4473C22.4629 35.4298 22.0154 35.3991 21.5673 35.3809C20.8543 35.352 20.1409 35.33 19.4278 35.301C19.3444 35.2975 19.262 35.2683 19.1739 35.2227C19.3293 35.2074 19.4845 35.1852 19.6404 35.1788C19.8266 35.1711 20.0137 35.1816 20.2001 35.1761C20.6313 35.1632 21.0622 35.1412 21.4934 35.1305C22.0308 35.1172 22.5684 35.113 23.1058 35.1021C23.4582 35.095 23.8105 35.083 24.1629 35.0736C24.8007 35.0564 25.4384 35.038 26.0762 35.023C26.6796 35.0088 27.2831 34.9998 27.8865 34.986C28.4589 34.973 29.0311 34.9566 29.6035 34.942C29.9054 34.9343 30.2074 34.9283 30.5093 34.9193C31.0908 34.9019 31.6725 34.8878 32.2538 34.8629C32.7148 34.8433 33.1754 34.8113 33.6359 34.7819C34.4254 34.7315 35.2147 34.6785 36.0041 34.6273C36.3338 34.6059 36.6641 34.5924 36.9932 34.5649C37.5184 34.5211 38.043 34.469 38.5677 34.4195C38.9917 34.3795 39.4158 34.3412 39.8392 34.2963C40.3341 34.2437 40.8319 34.2051 41.3219 34.1237C42.0072 34.0098 42.6898 33.8756 43.3666 33.7212C43.607 33.6664 43.836 33.5427 44.0538 33.4225C44.2835 33.2957 44.2779 32.9836 44.0874 32.7657C43.8167 32.4562 43.5649 32.131 43.3012 31.8155C43.0779 31.5483 42.8464 31.2873 42.6237 31.0196C42.4941 30.8637 42.3747 30.6998 42.2503 30.5399C42.0235 30.2483 41.8034 29.9514 41.5678 29.6668C41.2578 29.2925 40.931 28.9315 40.6199 28.5581C40.3833 28.274 40.1657 27.9751 39.9292 27.691C39.5914 27.2851 39.2429 26.8876 38.9011 26.4848C38.675 26.2181 38.457 25.9448 38.2278 25.6808C37.9081 25.3128 37.58 24.9517 37.2582 24.5853C37.0373 24.3338 36.8251 24.0749 36.6015 23.8257C36.2722 23.4587 35.9349 23.0984 35.6033 22.7334C35.3827 22.4907 35.1716 22.2397 34.9463 22.0013C34.6309 21.6674 34.3057 21.3422 33.9856 21.0125C33.7921 20.8131 33.6053 20.6072 33.4065 20.4129C32.9869 20.0028 32.5611 19.5985 32.138 19.1915C31.7513 18.8195 31.3735 18.4382 30.9757 18.0778C30.6152 17.7511 30.2332 17.4468 29.8604 17.133C29.4904 16.8216 29.1264 16.5032 28.7482 16.2014C28.2973 15.8417 27.8347 15.4956 27.3761 15.1451C26.8454 14.7395 26.3212 14.3254 25.7797 13.9338C25.2652 13.5616 24.7333 13.2119 24.2066 12.8557C23.6157 12.4561 23.0275 12.0525 22.428 11.6653C21.9462 11.354 21.4487 11.0655 20.9594 10.7649C20.5247 10.4979 20.0951 10.2229 19.6571 9.96117C19.3266 9.76378 18.9849 9.5842 18.6507 9.39246C18.2041 9.13622 17.7643 8.86849 17.3136 8.6193C16.8349 8.3547 16.3456 8.10831 15.8634 7.84966C15.5244 7.66782 15.1914 7.47515 14.852 7.29399C14.4427 7.07543 14.0303 6.86229 13.6175 6.64987C13.1489 6.40875 12.6775 6.17256 12.209 5.9313C11.7595 5.69989 11.3128 5.4633 10.8636 5.23161C10.2824 4.93184 9.70262 4.62923 9.11664 4.33859C8.8032 4.18308 8.47524 4.05539 8.15876 3.90534C7.83647 3.75258 7.52163 3.58498 7.20083 3.42913C6.9109 3.28821 6.61625 3.15643 6.32552 3.01691C5.90793 2.81651 5.49586 2.60491 5.07443 2.41254C4.62 2.20509 4.15419 2.02127 3.69966 1.81411C3.29762 1.63087 2.90638 1.42546 2.50643 1.23782C2.17618 1.08289 1.83893 0.942103 1.50689 0.790649C1.09973 0.604943 0.695961 0.412284 0.288012 0.228172C0.20499 0.190683 0.110138 0.17793 0.0207528 0.153774C-0.0260276 0.0554621 0.00628495 0.00420303 0.117643 0Z" fill="#ED225D"/>
</svg>
